<?xml version="1.0" encoding="utf-8"?>
<!-- Generator: Adobe Illustrator 23.0.4, SVG Export Plug-In . SVG Version: 6.00 Build 0)  -->
<svg version="1.1" id="Layer_1" xmlns="http://www.w3.org/2000/svg" xmlns:xlink="http://www.w3.org/1999/xlink" x="0px" y="0px"
	 viewBox="0 0 300 300" style="enable-background:new 0 0 300 300;" xml:space="preserve">
<style type="text/css">
	.st0{fill:#0A4CA2;}
	.st1{fill:#AD8B4C;}
</style>
<g>
	<g>
		<path class="st0" d="M29.02,85.8c0.91-0.22,1.82-0.13,2.71,0.29c1.24,0.58,2.02,1.46,2.35,2.63c0.33,1.17,0.12,2.54-0.62,4.11
			l-2.98,6.34l-14.76-6.95l2.92-6.21c0.7-1.49,1.57-2.48,2.6-2.98c1.03-0.49,2.14-0.46,3.33,0.1c0.92,0.43,1.56,1.03,1.92,1.79
			c0.36,0.76,0.45,1.57,0.26,2.43C27.35,86.54,28.1,86.03,29.02,85.8z M23.29,92.19l1.25-2.66c0.35-0.74,0.45-1.38,0.3-1.91
			c-0.15-0.54-0.53-0.95-1.14-1.24c-0.61-0.29-1.18-0.32-1.69-0.11c-0.51,0.22-0.95,0.72-1.32,1.5l-1.23,2.61L23.29,92.19z
			 M31.11,90.25c-0.14-0.58-0.54-1.02-1.2-1.33c-0.66-0.31-1.26-0.33-1.82-0.08c-0.56,0.26-1.02,0.78-1.39,1.56l-1.31,2.78
			l4.06,1.91l1.32-2.8C31.15,91.51,31.26,90.83,31.11,90.25z"/>
		<path class="st0" d="M54.05,62.19l-7.3-1.27L45.81,62l4.81,4.16l-2.13,2.47L36.15,57.95l4.07-4.7c1.24-1.43,2.53-2.22,3.88-2.37
			c1.35-0.15,2.6,0.27,3.74,1.26c0.93,0.81,1.49,1.74,1.67,2.8c0.18,1.06-0.05,2.17-0.68,3.34l7.59,1.19L54.05,62.19z M44.12,60.54
			l1.75-2.03c1.22-1.41,1.21-2.65-0.04-3.73c-0.59-0.51-1.21-0.74-1.84-0.69c-0.63,0.06-1.26,0.45-1.88,1.17l-1.75,2.03L44.12,60.54
			z"/>
		<path class="st0" d="M68.85,31.11l2.37,3.5L76,31.38l1.4,2.07l-4.79,3.24l2.46,3.64l5.36-3.63l1.46,2.16l-8.06,5.45L64.7,30.79
			l8.06-5.45l1.45,2.14L68.85,31.11z"/>
		<path class="st0" d="M118.14,6.35l0.93,16.78l-3.85,1.17l-6.36-10.43l0.5,12.22l-3.83,1.16L96.96,12.8l3.38-1.03l6.07,11.37
			l-0.59-13.04l3.43-1.04l6.8,11.15l-1.29-12.82L118.14,6.35z"/>
		<path class="st0" d="M187.54,9.44c1.06,1.25,1.58,2.72,1.56,4.43l-3.33-0.77c-0.15-0.79-0.52-1.48-1.1-2.07
			c-0.58-0.59-1.34-0.99-2.27-1.2c-0.92-0.21-1.78-0.19-2.58,0.07c-0.8,0.26-1.49,0.73-2.06,1.42c-0.57,0.69-0.98,1.56-1.22,2.61
			c-0.38,1.67-0.24,3.07,0.44,4.21c0.68,1.14,1.79,1.88,3.34,2.24c1.14,0.26,2.2,0.15,3.17-0.34c0.97-0.49,1.72-1.3,2.24-2.45
			l-5.38-1.24l0.52-2.27l8.04,1.86l-0.71,3.06c-0.47,1-1.13,1.87-1.99,2.6c-0.86,0.74-1.88,1.25-3.06,1.54
			c-1.18,0.29-2.46,0.28-3.82-0.04c-1.56-0.36-2.86-1.02-3.9-1.98c-1.04-0.96-1.74-2.13-2.11-3.5s-0.37-2.85-0.01-4.43
			c0.36-1.58,1.01-2.9,1.95-3.97c0.94-1.07,2.08-1.82,3.42-2.24c1.35-0.42,2.8-0.45,4.36-0.08C184.99,7.34,186.49,8.19,187.54,9.44z
			"/>
		<path class="st0" d="M226.39,25.82c0.71,1.24,1.06,2.59,1.04,4.04c-0.02,1.46-0.44,2.88-1.24,4.27c-0.81,1.38-1.84,2.45-3.11,3.19
			c-1.26,0.74-2.61,1.11-4.04,1.1c-1.43-0.01-2.8-0.4-4.12-1.17c-1.32-0.77-2.33-1.77-3.05-3.01c-0.72-1.24-1.06-2.59-1.03-4.05
			c0.02-1.47,0.44-2.89,1.25-4.28c0.81-1.38,1.84-2.45,3.1-3.18c1.26-0.74,2.6-1.1,4.03-1.09c1.43,0.01,2.8,0.4,4.12,1.17
			C224.66,23.58,225.67,24.59,226.39,25.82z M219.32,24.7c-0.84,0.01-1.64,0.26-2.41,0.75c-0.76,0.49-1.41,1.21-1.95,2.14
			c-0.54,0.93-0.84,1.85-0.9,2.75c-0.05,0.9,0.12,1.73,0.53,2.46c0.41,0.74,1.03,1.35,1.85,1.83c0.83,0.48,1.66,0.72,2.5,0.71
			c0.84-0.01,1.64-0.26,2.41-0.75c0.76-0.49,1.41-1.21,1.95-2.14c0.54-0.93,0.84-1.85,0.9-2.75c0.05-0.9-0.12-1.73-0.53-2.46
			c-0.41-0.74-1.03-1.35-1.85-1.83C221,24.93,220.17,24.69,219.32,24.7z"/>
		<path class="st0" d="M259.43,54.01c0.32,1.39,0.25,2.78-0.2,4.17c-0.45,1.39-1.27,2.62-2.45,3.71c-1.18,1.08-2.48,1.8-3.91,2.13
			c-1.43,0.34-2.82,0.29-4.18-0.14c-1.36-0.43-2.56-1.21-3.59-2.34c-1.03-1.12-1.71-2.38-2.02-3.77c-0.32-1.39-0.25-2.79,0.21-4.18
			c0.46-1.39,1.28-2.63,2.46-3.72c1.18-1.08,2.48-1.79,3.9-2.13c1.42-0.33,2.81-0.28,4.17,0.15c1.36,0.43,2.56,1.21,3.59,2.34
			C258.43,51.36,259.11,52.62,259.43,54.01z M253.01,50.85c-0.81-0.24-1.65-0.24-2.52,0.01c-0.87,0.25-1.71,0.74-2.5,1.46
			c-0.79,0.73-1.35,1.52-1.67,2.37c-0.32,0.85-0.39,1.68-0.22,2.51c0.17,0.83,0.58,1.59,1.23,2.29c0.65,0.7,1.37,1.18,2.18,1.42
			c0.81,0.24,1.65,0.24,2.52-0.01c0.87-0.25,1.71-0.74,2.5-1.47c0.79-0.73,1.35-1.52,1.67-2.37c0.32-0.85,0.39-1.69,0.22-2.51
			c-0.17-0.83-0.58-1.59-1.23-2.29C254.54,51.57,253.81,51.1,253.01,50.85z"/>
		<path class="st0" d="M272.89,97.06c-1.41-0.08-2.7-0.55-3.87-1.41c-1.18-0.86-2.15-2.09-2.91-3.69l-2.51-5.23l14.71-7.07
			l2.51,5.23c0.77,1.6,1.13,3.12,1.08,4.57s-0.48,2.75-1.29,3.89c-0.81,1.14-1.95,2.07-3.42,2.77
			C275.73,96.82,274.3,97.13,272.89,97.06z M271.63,93.52c1.25,0.47,2.63,0.34,4.13-0.38c1.51-0.73,2.48-1.73,2.9-2.99
			c0.42-1.27,0.24-2.69-0.52-4.28l-0.98-2.04l-9.52,4.58l0.98,2.04C269.38,92.03,270.38,93.05,271.63,93.52z"/>
	</g>
	<g>
		<path class="st1" d="M121.09,110.95c5.16,5.16,12,7.93,19.47,7.93c0.88,0,1.76-0.04,2.66-0.12c8.25-0.71,16.3-4.62,22.68-11
			c13.32-13.32,14.42-32.32,2.56-44.18c-2.19-2.19-4.96-3.66-8.24-4.35c-3.1-0.66-6.51-0.6-10.15,0.16
			c-7.34,1.55-14.83,5.84-21.08,12.09c-6.25,6.25-10.55,13.74-12.09,21.08c-0.77,3.64-0.82,7.05-0.16,10.15
			C117.44,105.98,118.9,108.76,121.09,110.95z M147.9,89.24l-4-5.68c-0.15-0.21-0.14-0.42-0.12-0.53c0.02-0.11,0.08-0.31,0.29-0.46
			l22.83-15.89c0.19-0.13,0.46-0.1,0.61,0.09c2.78,3.59,3.63,8.71,2.38,14.61c-1.44,6.81-5.46,13.8-11.33,19.66
			c-5.87,5.87-12.85,9.89-19.66,11.33c-5.57,1.18-10.44,0.49-13.99-1.93c-0.26-0.18-0.27-0.56-0.01-0.74l22.19-15.44
			c0.82-0.57,1.35-1.44,1.48-2.43C148.7,90.92,148.43,90,147.9,89.24z M163.91,105.77c-5.91,5.91-13.35,9.53-20.93,10.18
			c-1.17,0.1-2.33,0.13-3.47,0.08c-0.53-0.02-0.58-0.77-0.07-0.88c0.01,0,0.03-0.01,0.04-0.01c7.34-1.55,14.83-5.84,21.08-12.09
			c6.25-6.25,10.55-13.74,12.09-21.08c0.07-0.32,0.13-0.64,0.18-0.95c0.09-0.52,0.83-0.48,0.88,0.04
			C174.48,89.46,171.16,98.51,163.91,105.77z M119.66,93.14c1.44-6.81,5.46-13.8,11.33-19.66c5.87-5.87,12.85-9.89,19.66-11.33
			c1.78-0.38,3.49-0.56,5.1-0.56c3.44,0,6.47,0.84,8.88,2.49c0.26,0.18,0.27,0.56,0.01,0.74l-22.19,15.45
			c-0.82,0.57-1.35,1.44-1.48,2.43c-0.12,0.91,0.15,1.84,0.68,2.59l4,5.68c0.15,0.21,0.14,0.42,0.12,0.53
			c-0.02,0.11-0.08,0.31-0.29,0.46l-22.83,15.89c-0.19,0.13-0.46,0.1-0.61-0.09C119.27,104.16,118.42,99.05,119.66,93.14z"/>
		<path class="st1" d="M163.81,191.34c-6.25-6.25-13.74-10.55-21.08-12.09c-3.63-0.77-7.05-0.82-10.15-0.16
			c-3.28,0.7-6.05,2.16-8.24,4.35c-5.77,5.77-8.55,13.63-7.81,22.13c0.71,8.25,4.62,16.3,11,22.68c6.35,6.35,14.3,10.14,22.4,10.69
			c0.67,0.04,1.33,0.07,1.99,0.07c7.5,0,14.47-2.87,19.79-8.2c2.19-2.19,3.66-4.96,4.35-8.24c0.66-3.1,0.6-6.51-0.16-10.15
			C174.36,205.08,170.06,197.6,163.81,191.34z M134.25,220.91c-5.87-5.87-9.89-12.85-11.33-19.66c-1.17-5.57-0.49-10.44,1.93-13.99
			c0.18-0.26,0.56-0.27,0.74-0.01l15.44,22.19c0.57,0.82,1.44,1.35,2.43,1.48c0.91,0.12,1.84-0.15,2.59-0.68l5.68-4
			c0.21-0.15,0.42-0.14,0.53-0.12c0.11,0.02,0.31,0.08,0.46,0.29l15.89,22.83c0.13,0.19,0.1,0.46-0.09,0.6
			C160.54,236.04,145.61,232.28,134.25,220.91z M150.12,236.12c-7.41-0.5-14.72-4-20.59-9.87c-5.91-5.91-9.53-13.35-10.18-20.93
			c-0.1-1.17-0.13-2.33-0.08-3.47c0.02-0.53,0.77-0.58,0.88-0.07c0,0.01,0.01,0.03,0.01,0.04c1.55,7.34,5.84,14.83,12.09,21.08
			c6.25,6.25,13.74,10.55,21.08,12.09c0.33,0.07,0.66,0.13,0.98,0.19c0.51,0.09,0.48,0.83-0.03,0.88
			C152.92,236.2,151.53,236.22,150.12,236.12z M171.22,226.99c-0.18,0.26-0.56,0.27-0.74,0.01l-15.44-22.19
			c-0.54-0.78-1.35-1.29-2.28-1.46c-0.93-0.17-1.87,0.04-2.65,0.59l-5.78,4.07c-0.21,0.15-0.42,0.14-0.53,0.12
			c-0.11-0.02-0.31-0.08-0.46-0.29L127.45,185c-0.13-0.19-0.1-0.46,0.09-0.61c3.59-2.78,8.71-3.63,14.61-2.38
			c6.81,1.44,13.8,5.46,19.66,11.33c5.87,5.87,9.89,12.85,11.33,19.66C174.32,218.58,173.63,223.44,171.22,226.99z"/>
		<path class="st1" d="M230.32,141.98l-5.81-5.81l-0.01,0.01c-0.64-0.65-1.53-1.05-2.51-1.05H70.94c-1.95,0-3.53,1.58-3.53,3.53
			v13.41c0,1.02,0.44,1.94,1.14,2.59l0,0l6.96,6.96c0.67,0.67,1.55,1.03,2.5,1.03h149.82c1.95,0,3.53-1.58,3.53-3.53v-14.65
			C231.36,143.53,230.99,142.64,230.32,141.98z M70.24,138.65c0-0.39,0.32-0.71,0.71-0.71H222c0.39,0,0.71,0.32,0.71,0.71v13.41
			c0,0.39-0.32,0.71-0.71,0.71H70.94c-0.39,0-0.71-0.32-0.71-0.71V138.65z M228.53,159.12c0,0.39-0.32,0.71-0.71,0.71H78
			c-0.19,0-0.37-0.07-0.5-0.21l-2.82-2.82c-0.44-0.44-0.13-1.2,0.5-1.2H222c1.95,0,3.53-1.58,3.53-3.53v-10.04
			c0-0.31,0.38-0.47,0.6-0.25l2.2,2.2c0.13,0.13,0.21,0.31,0.21,0.5V159.12z"/>
	</g>
	<g>
		<path class="st0" d="M28.07,196.31c-0.55,1.61-1.61,2.91-3.18,3.91l-1.11-3.23c0.72-0.62,1.19-1.37,1.43-2.24
			c0.24-0.87,0.19-1.8-0.16-2.79c-0.28-0.82-0.74-1.48-1.37-2c-0.63-0.52-1.39-0.82-2.28-0.93c-0.88-0.1-1.83,0.02-2.85,0.37
			c-1.01,0.35-1.82,0.83-2.46,1.46c-0.63,0.62-1.04,1.34-1.22,2.13c-0.18,0.8-0.13,1.6,0.15,2.42c0.34,0.99,0.87,1.76,1.6,2.3
			c0.72,0.54,1.56,0.84,2.5,0.89l1.11,3.23c-1.84,0.18-3.48-0.19-4.91-1.12c-1.43-0.93-2.47-2.35-3.13-4.27
			c-0.51-1.47-0.62-2.89-0.35-4.24c0.27-1.36,0.9-2.55,1.88-3.58c0.98-1.03,2.23-1.81,3.75-2.33c1.53-0.53,3-0.69,4.41-0.48
			c1.41,0.21,2.64,0.76,3.69,1.65c1.05,0.89,1.83,2.08,2.34,3.57C28.57,192.93,28.62,194.7,28.07,196.31z"/>
		<path class="st0" d="M36.31,234.57l-3.82-5.31l-3.34,0.98l-2.01-2.8l16.61-4.54l2.17,3.02l-9.6,14.28l-2.01-2.8L36.31,234.57z
			 M37.8,232.42l4.19-5.97l-7,2.07L37.8,232.42z"/>
		<path class="st0" d="M59.35,259.62l4.25,3.45l-1.57,1.94l-6.78-5.51l10.29-12.66l2.53,2.06L59.35,259.62z"/>
		<path class="st0" d="M102.49,270.79c0.81,1.5,1.05,3.16,0.73,4.98l-3.14-1.37c0.03-0.95-0.2-1.8-0.68-2.57
			c-0.48-0.77-1.2-1.36-2.16-1.78c-0.79-0.35-1.59-0.46-2.4-0.34c-0.81,0.12-1.55,0.47-2.22,1.05c-0.67,0.58-1.23,1.36-1.66,2.35
			c-0.43,0.97-0.62,1.91-0.59,2.79c0.03,0.89,0.28,1.67,0.74,2.34c0.46,0.67,1.09,1.18,1.88,1.53c0.96,0.42,1.88,0.55,2.77,0.38
			c0.89-0.17,1.67-0.58,2.35-1.25l3.14,1.37c-1.12,1.48-2.5,2.43-4.15,2.86c-1.65,0.42-3.4,0.23-5.27-0.58
			c-1.43-0.62-2.55-1.49-3.36-2.61c-0.81-1.12-1.27-2.39-1.36-3.81c-0.1-1.42,0.18-2.86,0.82-4.33c0.65-1.48,1.52-2.67,2.63-3.57
			c1.11-0.9,2.34-1.43,3.71-1.6c1.37-0.17,2.77,0.06,4.21,0.69C100.34,268.13,101.68,269.29,102.49,270.79z"/>
		<path class="st0" d="M131.06,276.84l-1.15,9.5c-0.15,1.27,0.01,2.26,0.49,2.96c0.48,0.7,1.25,1.12,2.31,1.24
			c1.04,0.13,1.88-0.09,2.51-0.66c0.63-0.57,1.03-1.49,1.18-2.76l1.15-9.5l3.21,0.39l-1.15,9.5c-0.18,1.5-0.61,2.73-1.3,3.7
			c-0.68,0.97-1.55,1.64-2.6,2.03c-1.05,0.39-2.2,0.5-3.45,0.35c-1.94-0.23-3.43-1-4.45-2.31c-1.02-1.3-1.4-3.08-1.13-5.33l1.15-9.5
			L131.06,276.84z"/>
		<path class="st0" d="M169.77,290.64l5.42-0.77l0.35,2.47l-8.65,1.23l-2.3-16.16l3.23-0.46L169.77,290.64z"/>
		<path class="st0" d="M209.63,278.19l-6,2.6l0.25,3.47l-3.16,1.37l-0.91-17.19l3.41-1.48l11.92,12.42l-3.16,1.37L209.63,278.19z
			 M207.84,276.27l-4.95-5.36l0.54,7.28L207.84,276.27z"/>
		<path class="st0" d="M236.37,245.28l1.64,2.01l-3.49,2.85l8.67,10.64l-2.53,2.06l-8.68-10.64l-3.48,2.83l-1.64-2.01L236.37,245.28
			z"/>
		<path class="st0" d="M259.32,219.6c1.29-0.61,2.66-0.85,4.11-0.72c1.45,0.14,2.84,0.66,4.15,1.58c1.32,0.91,2.3,2.03,2.94,3.35
			c0.64,1.32,0.9,2.69,0.77,4.11c-0.13,1.42-0.62,2.76-1.49,4.01c-0.87,1.25-1.95,2.19-3.24,2.8c-1.29,0.61-2.66,0.85-4.12,0.71
			c-1.46-0.14-2.85-0.67-4.16-1.58c-1.32-0.91-2.29-2.03-2.93-3.34c-0.64-1.31-0.89-2.68-0.77-4.11c0.13-1.42,0.62-2.76,1.49-4.01
			C256.95,221.14,258.03,220.21,259.32,219.6z M257.65,226.55c-0.06,0.84,0.13,1.66,0.56,2.46c0.43,0.8,1.09,1.5,1.98,2.12
			c0.89,0.62,1.78,0.99,2.68,1.11c0.9,0.13,1.73,0.02,2.5-0.33c0.77-0.35,1.42-0.92,1.97-1.7c0.54-0.78,0.85-1.6,0.91-2.44
			c0.06-0.84-0.13-1.66-0.56-2.46c-0.43-0.8-1.09-1.5-1.98-2.12c-0.89-0.61-1.78-0.99-2.68-1.11c-0.9-0.13-1.73-0.01-2.5,0.33
			c-0.77,0.35-1.42,0.92-1.97,1.7C258.01,224.9,257.7,225.71,257.65,226.55z"/>
		<path class="st0" d="M289.16,191.92l-7.23,1.62l-0.45,1.36l6.04,2l-1.02,3.09L271,194.88l1.95-5.9c0.6-1.8,1.49-3.03,2.68-3.68
			c1.19-0.65,2.5-0.74,3.94-0.27c1.17,0.39,2.04,1.04,2.62,1.95c0.57,0.91,0.79,2.03,0.65,3.34l7.47-1.82L289.16,191.92z
			 M279.35,194.21l0.84-2.55c0.59-1.77,0.1-2.91-1.47-3.43c-0.75-0.25-1.4-0.22-1.96,0.07c-0.56,0.29-0.99,0.89-1.29,1.8l-0.84,2.55
			L279.35,194.21z"/>
	</g>
	<g>
		<path class="st1" d="M17.42,137.9l-4.36,4.36c-0.28,0.28-0.72,0.28-1,0L7.7,137.9c-0.28-0.28-0.72-0.28-1,0l-1.5,1.5
			c-0.28,0.28-0.28,0.72,0,1l4.36,4.36c0.28,0.28,0.28,0.72,0,1l-4.36,4.36c-0.28,0.28-0.28,0.72,0,1l1.5,1.5
			c0.28,0.28,0.72,0.28,1,0l4.36-4.36c0.28-0.28,0.72-0.28,1,0l4.36,4.36c0.28,0.28,0.72,0.28,1,0l1.5-1.5c0.28-0.28,0.28-0.72,0-1
			l-4.36-4.36c-0.28-0.28-0.28-0.72,0-1l4.36-4.36c0.28-0.28,0.28-0.72,0-1l-1.5-1.5C18.14,137.63,17.69,137.63,17.42,137.9z"/>
		<path class="st1" d="M294.79,139.4l-1.5-1.5c-0.28-0.28-0.72-0.28-1,0l-4.36,4.36c-0.28,0.28-0.72,0.28-1,0l-4.36-4.36
			c-0.28-0.28-0.72-0.28-1,0l-1.5,1.5c-0.28,0.28-0.28,0.72,0,1l4.36,4.36c0.28,0.28,0.28,0.72,0,1l-4.36,4.36
			c-0.28,0.28-0.28,0.72,0,1l1.5,1.5c0.28,0.28,0.72,0.28,1,0l4.36-4.36c0.28-0.28,0.72-0.28,1,0l4.36,4.36c0.28,0.28,0.72,0.28,1,0
			l1.5-1.5c0.28-0.28,0.28-0.72,0-1l-4.36-4.36c-0.28-0.28-0.28-0.72,0-1l4.36-4.36C295.07,140.12,295.07,139.68,294.79,139.4z"/>
	</g>
</g>
</svg>
